# xmcd
#
# Track frame offsets:
#	150
#	18052
#	35972
#	52920
#	69446
#	93233
#	114328
#	129548
#	147944
#	165265
#	182338
#	204028
#	224276
#
# Disc length: 3247 seconds
#
# Revision: 0
# Processed by: cddbd v1.5.1PL0 Copyright (c) Steve Scherf et al.
# Submitted via: EasyCDDAExtractor 4.5.0.1
#
DISCID=a20cad0d
DTITLE=Aaron Gilbreath - God's Gift For Me
DYEAR=2005
DGENRE=country
TTITLE0=God's Gift For Me
TTITLE1=She Don't Know
TTITLE2=We Danced
TTITLE3=When You Love Someone
TTITLE4=Dream In My Arms
TTITLE5=I'll Always Be There
TTITLE6=I Get Carried Away
TTITLE7=She Thinks
TTITLE8=Because You Love Me
TTITLE9=Broken Road
TTITLE10=These Are the Moments
TTITLE11=All I Want To Do
TTITLE12=Keeper of the Stars
EXTD=
EXTT0=
EXTT1=
EXTT2=
EXTT3=
EXTT4=
EXTT5=
EXTT6=
EXTT7=
EXTT8=
EXTT9=
EXTT10=
EXTT11=
EXTT12=
PLAYORDER=
